<svg xmlns="http://www.w3.org/2000/svg" xmlns:xlink="http://www.w3.org/1999/xlink" version="1.1" width="256" height="256" viewBox="0 0 256 256" xml:space="preserve">

<defs>
</defs>
<g style="stroke: none; stroke-width: 0; stroke-dasharray: none; stroke-linecap: butt; stroke-linejoin: miter; stroke-miterlimit: 10; fill: none; fill-rule: nonzero; opacity: 1;" transform="translate(1.4065934065934016 1.4065934065934016) scale(2.81 2.81)" >
	<path d="M 89.952 54.629 c 0.013 -0.354 0.024 -0.709 0.024 -1.067 c 0 -14.358 -10.275 -25.998 -22.95 -25.998 c -0.402 0 -0.801 0.012 -1.198 0.035 c -5.291 -6.91 -13.092 -11.286 -21.8 -11.286 c -8.702 0 -16.498 4.37 -21.789 11.271 C 9.894 28.01 0 39.473 0 53.562 c 0 0.358 0.011 0.713 0.024 1.067 c 0 3.555 2.568 6.463 5.706 6.463 h 25.883 l -6.109 -6.109 c -0.297 -0.296 -0.297 -0.777 0 -1.074 l 7.696 -7.696 c 0.296 -0.297 0.777 -0.297 1.074 0 l 4.048 4.048 V 30.482 c 0 -0.449 0.364 -0.812 0.812 -0.812 H 49.91 c 0.449 0 0.812 0.364 0.812 0.812 v 19.779 l 4.048 -4.048 c 0.296 -0.297 0.777 -0.297 1.074 0 l 7.696 7.696 c 0.297 0.296 0.297 0.777 0 1.074 l -6.109 6.109 h 26.864 c 3.138 0 5.706 -2.909 5.706 -6.463 H 89.952 z" style="stroke: none; stroke-width: 1; stroke-dasharray: none; stroke-linecap: butt; stroke-linejoin: miter; stroke-miterlimit: 10; fill: rgb(4, 187, 4); fill-rule: nonzero; opacity: 1;" transform=" matrix(1 0 0 1 0 0) " stroke-linecap="round" />
	<path d="M 31.613 61.092 l 4.676 4.676 l 7.696 7.696 c 0.297 0.296 0.777 0.296 1.074 0 l 7.696 -7.696 l 4.676 -4.676 H 31.613 z" style="stroke: none; stroke-width: 1; stroke-dasharray: none; stroke-linecap: butt; stroke-linejoin: miter; stroke-miterlimit: 10; fill: rgb(4, 187, 4); fill-rule: nonzero; opacity: 1;" transform=" matrix(1 0 0 1 0 0) " stroke-linecap="round" />
</g>
</svg>